<svg width="112" height="112" viewBox="0 0 112 112" fill="none" xmlns="http://www.w3.org/2000/svg">
<path fill-rule="evenodd" clip-rule="evenodd" d="M48 92.0007V104.001H64V92.0007H76V76.0007H88V68.0007H100V52.0007H112V16.0007H100V4.00073H64V16.0007H48V4.00073H12V16.0007H0V52.0007H12V68.0007H24V76.0007H36V92.0007H48ZM32.0009 20.0007H16.0009V44.0007H32.0009V20.0007Z" fill="#82F9A1"/>
<rect x="12" y="4.00073" width="4" height="4" fill="#F11822"/>
<rect x="16" y="20.0002" width="16" height="24" fill="white"/>
<rect x="12" y="12.0005" width="4" height="4" fill="#F11822"/>
<rect x="12" y="7.99976" width="4" height="4" fill="#F11822"/>
<rect x="16" y="4.00073" width="4" height="4" fill="#F11822"/>
<rect x="16" y="7.99976" width="4" height="4" fill="#F11822"/>
<rect x="16" y="12.0005" width="4" height="4" fill="#FE4422"/>
<rect x="16" y="15.9995" width="4" height="4" fill="#FE4422"/>
<rect x="12" y="15.9995" width="4" height="4" fill="#FE4422"/>
<rect x="20" y="4.00073" width="4" height="4" fill="#F11822"/>
<rect x="20" y="12.0005" width="4" height="4" fill="#FE4422"/>
<rect x="20" y="7.99976" width="4" height="4" fill="#FE4422"/>
<rect x="24" y="4.00073" width="4" height="4" fill="#FE4422"/>
<rect x="24" y="7.99976" width="4" height="4" fill="#FE4422"/>
<rect x="24" y="12.0005" width="4" height="4" fill="#FE4422"/>
<rect x="24" y="15.9995" width="4" height="4" fill="#FE4422"/>
<rect x="20" y="15.9995" width="4" height="4" fill="#FE4422"/>
<rect x="28" y="4.00073" width="4" height="4" fill="#FE4422"/>
<rect x="28" y="12.0005" width="4" height="4" fill="#FE4422"/>
<rect x="28" y="7.99976" width="4" height="4" fill="#FE4422"/>
<rect x="32" y="4.00073" width="4" height="4" fill="#FE4422"/>
<rect x="32" y="7.99976" width="4" height="4" fill="#FE4422"/>
<rect x="32" y="12.0005" width="4" height="4" fill="#FF8825"/>
<rect x="32" y="15.9995" width="4" height="4" fill="#FF8825"/>
<rect x="28" y="15.9995" width="4" height="4" fill="#FF8825"/>
<rect x="36" y="4.00073" width="4" height="4" fill="#FE4422"/>
<rect x="36" y="12.0005" width="4" height="4" fill="#FF8825"/>
<rect x="36" y="7.99976" width="4" height="4" fill="#FF8825"/>
<rect x="40" y="4.00073" width="4" height="4" fill="#FF8825"/>
<rect x="40" y="7.99976" width="4" height="4" fill="#FF8825"/>
<rect x="40" y="12.0005" width="4" height="4" fill="#FF8825"/>
<rect x="40" y="15.9995" width="4" height="4" fill="#FF8825"/>
<rect x="44" y="4.00073" width="4" height="4" fill="#FF8825"/>
<rect x="44" y="7.99976" width="4" height="4" fill="#FF8825"/>
<rect x="44" y="12.0005" width="4" height="4" fill="#FF8825"/>
<rect x="44" y="15.9995" width="4" height="4" fill="#FFAA01"/>
<rect x="36" y="15.9995" width="4" height="4" fill="#FF8825"/>
<rect x="32" y="20.0002" width="4" height="4" fill="#FF8825"/>
<rect x="32" y="23.9993" width="4" height="4" fill="#FF8825"/>
<rect x="32" y="28" width="4" height="4" fill="#FFAA01"/>
<rect x="32" y="32.0007" width="4" height="4" fill="#FFAA01"/>
<rect x="36" y="20.0002" width="4" height="4" fill="#FF8825"/>
<rect x="36" y="28" width="4" height="4" fill="#FFAA01"/>
<rect x="36" y="23.9993" width="4" height="4" fill="#FFAA01"/>
<rect x="40" y="20.0002" width="4" height="4" fill="#FFAA01"/>
<rect x="40" y="23.9993" width="4" height="4" fill="#FFAA01"/>
<rect x="40" y="28" width="4" height="4" fill="#FFAA01"/>
<rect x="40" y="32.0007" width="4" height="4" fill="#FFAA01"/>
<rect x="44" y="20.0002" width="4" height="4" fill="#FFAA01"/>
<rect x="44" y="23.9993" width="4" height="4" fill="#FFAA01"/>
<rect x="44" y="28" width="4" height="4" fill="#FFAA01"/>
<rect x="44" y="32.0007" width="4" height="4" fill="#FFF900"/>
<rect x="36" y="32.0007" width="4" height="4" fill="#FFAA01"/>
<rect x="32" y="35.9998" width="4" height="4" fill="#FFAA01"/>
<rect x="32" y="40.0005" width="4" height="4" fill="#FFAA01"/>
<rect x="32" y="40.0005" width="4" height="4" fill="#FFAA01"/>
<rect x="32" y="43.9995" width="4" height="4" fill="#FFF900"/>
<rect x="32" y="48.0002" width="4" height="4" fill="#FFF900"/>
<rect x="36" y="35.9998" width="4" height="4" fill="#FFAA01"/>
<rect x="36" y="43.9995" width="4" height="4" fill="#FFF900"/>
<rect x="36" y="40.0005" width="4" height="4" fill="#FFF900"/>
<rect x="40" y="35.9998" width="4" height="4" fill="#FFF900"/>
<rect x="40" y="40.0005" width="4" height="4" fill="#FFF900"/>
<rect x="40" y="43.9995" width="4" height="4" fill="#FFF900"/>
<rect x="40" y="48.0002" width="4" height="4" fill="#FFF900"/>
<rect x="44" y="35.9998" width="4" height="4" fill="#FFF900"/>
<rect x="44" y="40.0005" width="4" height="4" fill="#FFF900"/>
<rect x="44" y="43.9995" width="4" height="4" fill="#FFF900"/>
<rect x="44" y="48.0002" width="4" height="4" fill="#DEEF18"/>
<rect x="36" y="48.0002" width="4" height="4" fill="#FFF900"/>
<rect x="32" y="51.9993" width="4" height="4" fill="#FFF900"/>
<rect x="32" y="56" width="4" height="4" fill="#FFF900"/>
<rect x="32" y="60.0007" width="4" height="4.00001" fill="#DEEF18"/>
<rect x="32" y="63.9998" width="4" height="4" fill="#DEEF18"/>
<rect x="28" y="43.9995" width="4" height="4" fill="#FFAA01"/>
<rect x="28" y="48.0002" width="4" height="4" fill="#FFF900"/>
<rect x="28" y="51.9993" width="4" height="4" fill="#FFF900"/>
<rect x="28" y="56" width="4" height="4" fill="#FFF900"/>
<rect x="28" y="60.0007" width="4" height="4.00001" fill="#FFF900"/>
<rect x="28" y="63.9998" width="4" height="4" fill="#DEEF18"/>
<rect x="36" y="51.9993" width="4" height="4" fill="#FFF900"/>
<rect x="36" y="60.0007" width="4" height="4.00001" fill="#DEEF18"/>
<rect x="36" y="56" width="4" height="4" fill="#DEEF18"/>
<rect x="40" y="51.9993" width="4" height="4" fill="#DEEF18"/>
<rect x="40" y="56" width="4" height="4" fill="#DEEF18"/>
<rect x="40" y="60.0007" width="4" height="4.00001" fill="#DEEF18"/>
<rect x="40" y="63.9998" width="4" height="4" fill="#B6E718"/>
<rect x="44" y="51.9993" width="4" height="4" fill="#DEEF18"/>
<rect x="44" y="56" width="4" height="4" fill="#DEEF18"/>
<rect x="44" y="60.0007" width="4" height="4.00001" fill="#B6E718"/>
<rect x="44" y="63.9998" width="4" height="4" fill="#B6E718"/>
<rect x="36" y="63.9998" width="4" height="4" fill="#DEEF18"/>
<rect x="16" y="43.9995" width="4" height="4" fill="#FFAA01"/>
<rect x="16" y="48.0002" width="4" height="4" fill="#FFAA01"/>
<rect x="20" y="43.9995" width="4" height="4" fill="#FFAA01"/>
<rect x="24" y="43.9995" width="4" height="4" fill="#FFAA01"/>
<rect x="24" y="48.0002" width="4" height="4" fill="#FFAA01"/>
<rect x="20" y="48.0002" width="4" height="4" fill="#FFAA01"/>
<rect x="16" y="51.9993" width="4" height="4" fill="#FFAA01"/>
<rect x="16" y="56" width="4" height="4" fill="#FFAA01"/>
<rect x="16" y="60.0007" width="4" height="4.00001" fill="#FFF900"/>
<rect x="16" y="63.9998" width="4" height="4" fill="#FFF900"/>
<rect x="12" y="51.9993" width="4" height="4" fill="#FFAA01"/>
<rect x="12" y="56" width="4" height="4" fill="#FFAA01"/>
<rect x="12" y="60.0007" width="4" height="4.00001" fill="#FFAA01"/>
<rect x="12" y="63.9998" width="4" height="4" fill="#FFF900"/>
<rect x="20" y="51.9993" width="4" height="4" fill="#FFAA01"/>
<rect x="20" y="60.0007" width="4" height="4.00001" fill="#FFF900"/>
<rect x="20" y="56" width="4" height="4" fill="#FFF900"/>
<rect x="24" y="51.9993" width="4" height="4" fill="#FFF900"/>
<rect x="24" y="56" width="4" height="4" fill="#FFF900"/>
<rect x="24" y="60.0007" width="4" height="4.00001" fill="#FFF900"/>
<rect x="24" y="63.9998" width="4" height="4" fill="#FFF900"/>
<rect x="20" y="63.9998" width="4" height="4" fill="#FFF900"/>
<rect x="48" y="15.9995" width="4" height="4" fill="#FFAA01"/>
<rect x="56" y="15.9995" width="4" height="4" fill="#FFAA01"/>
<rect x="60" y="15.9995" width="4" height="4" fill="#FFF900"/>
<rect x="52" y="15.9995" width="4" height="4" fill="#FFAA01"/>
<rect x="48" y="20.0002" width="4" height="4" fill="#FFAA01"/>
<rect x="48" y="23.9993" width="4" height="4" fill="#FFAA01"/>
<rect x="48" y="28" width="4" height="4" fill="#FFF900"/>
<rect x="48" y="32.0007" width="4" height="4" fill="#FFF900"/>
<rect x="52" y="20.0002" width="4" height="4" fill="#FFAA01"/>
<rect x="52" y="28" width="4" height="4" fill="#FFF900"/>
<rect x="52" y="23.9993" width="4" height="4" fill="#FFF900"/>
<rect x="56" y="20.0002" width="4" height="4" fill="#FFF900"/>
<rect x="56" y="23.9993" width="4" height="4" fill="#FFF900"/>
<rect x="56" y="28" width="4" height="4" fill="#FFF900"/>
<rect x="56" y="32.0007" width="4" height="4" fill="#FFF900"/>
<rect x="60" y="20.0002" width="4" height="4" fill="#FFF900"/>
<rect x="60" y="23.9993" width="4" height="4" fill="#FFF900"/>
<rect x="60" y="28" width="4" height="4" fill="#FFF900"/>
<rect x="60" y="32.0007" width="4" height="4" fill="#DEEF18"/>
<rect x="52" y="32.0007" width="4" height="4" fill="#FFF900"/>
<rect x="48" y="35.9998" width="4" height="4" fill="#FFF900"/>
<rect x="48" y="40.0005" width="4" height="4" fill="#FFF900"/>
<rect x="48" y="43.9995" width="4" height="4" fill="#DEEF18"/>
<rect x="48" y="48.0002" width="4" height="4" fill="#DEEF18"/>
<rect x="52" y="35.9998" width="4" height="4" fill="#FFF900"/>
<rect x="52" y="43.9995" width="4" height="4" fill="#DEEF18"/>
<rect x="52" y="40.0005" width="4" height="4" fill="#DEEF18"/>
<rect x="56" y="35.9998" width="4" height="4" fill="#DEEF18"/>
<rect x="56" y="40.0005" width="4" height="4" fill="#DEEF18"/>
<rect x="56" y="43.9995" width="4" height="4" fill="#DEEF18"/>
<rect x="56" y="48.0002" width="4" height="4" fill="#B6E718"/>
<rect x="60" y="35.9998" width="4" height="4" fill="#DEEF18"/>
<rect x="60" y="40.0005" width="4" height="4" fill="#DEEF18"/>
<rect x="60" y="43.9995" width="4" height="4" fill="#B6E718"/>
<rect x="60" y="48.0002" width="4" height="4" fill="#B6E718"/>
<rect x="52" y="48.0002" width="4" height="4" fill="#DEEF18"/>
<rect x="48" y="51.9993" width="4" height="4" fill="#DEEF18"/>
<rect x="48" y="56" width="4" height="4" fill="#B6E718"/>
<rect x="48" y="60.0007" width="4" height="4.00001" fill="#B6E718"/>
<rect x="48" y="63.9998" width="4" height="4" fill="#B6E718"/>
<rect x="52" y="51.9993" width="4" height="4" fill="#B6E718"/>
<rect x="52" y="60.0007" width="4" height="4.00001" fill="#B6E718"/>
<rect x="52" y="56" width="4" height="4" fill="#B6E718"/>
<rect x="56" y="51.9993" width="4" height="4" fill="#B6E718"/>
<rect x="56" y="56" width="4" height="4" fill="#B6E718"/>
<rect x="56" y="60.0007" width="4" height="4.00001" fill="#00E895"/>
<rect x="56" y="63.9998" width="4" height="4" fill="#00E895"/>
<rect x="60" y="51.9993" width="4" height="4" fill="#B6E718"/>
<rect x="60" y="56" width="4" height="4" fill="#00E895"/>
<rect x="60" y="60.0007" width="4" height="4.00001" fill="#00E895"/>
<rect x="60" y="63.9998" width="4" height="4" fill="#00E895"/>
<rect x="52" y="63.9998" width="4" height="4" fill="#00E895"/>
<rect x="64" y="15.9995" width="4" height="4" fill="#FFF900"/>
<rect x="72" y="15.9995" width="4" height="4" fill="#FFF900"/>
<rect x="76" y="15.9995" width="4" height="4" fill="#DEEF18"/>
<rect x="68" y="15.9995" width="4" height="4" fill="#FFF900"/>
<rect x="64" y="20.0002" width="4" height="4" fill="#FFF900"/>
<rect x="64" y="23.9993" width="4" height="4" fill="#FFF900"/>
<rect x="64" y="28" width="4" height="4" fill="#DEEF18"/>
<rect x="64" y="32.0007" width="4" height="4" fill="#DEEF18"/>
<rect x="68" y="20.0002" width="4" height="4" fill="#FFF900"/>
<rect x="68" y="28" width="4" height="4" fill="#DEEF18"/>
<rect x="68" y="23.9993" width="4" height="4" fill="#DEEF18"/>
<rect x="72" y="20.0002" width="4" height="4" fill="#DEEF18"/>
<rect x="72" y="23.9993" width="4" height="4" fill="#DEEF18"/>
<rect x="72" y="28" width="4" height="4" fill="#DEEF18"/>
<rect x="72" y="32.0007" width="4" height="4" fill="#B6E718"/>
<rect x="76" y="20.0002" width="4" height="4" fill="#DEEF18"/>
<rect x="76" y="23.9993" width="4" height="4" fill="#DEEF18"/>
<rect x="76" y="28" width="4" height="4" fill="#B6E718"/>
<rect x="76" y="32.0007" width="4" height="4" fill="#B6E718"/>
<rect x="68" y="32.0007" width="4" height="4" fill="#DEEF18"/>
<rect x="64" y="35.9998" width="4" height="4" fill="#DEEF18"/>
<rect x="64" y="40.0005" width="4" height="4" fill="#B6E718"/>
<rect x="64" y="43.9995" width="4" height="4" fill="#B6E718"/>
<rect x="64" y="48.0002" width="4" height="4" fill="#B6E718"/>
<rect x="68" y="35.9998" width="4" height="4" fill="#B6E718"/>
<rect x="68" y="43.9995" width="4" height="4" fill="#B6E718"/>
<rect x="68" y="40.0005" width="4" height="4" fill="#B6E718"/>
<rect x="72" y="35.9998" width="4" height="4" fill="#B6E718"/>
<rect x="72" y="40.0005" width="4" height="4" fill="#B6E718"/>
<rect x="72" y="43.9995" width="4" height="4" fill="#00E895"/>
<rect x="72" y="48.0002" width="4" height="4" fill="#00E895"/>
<rect x="76" y="35.9998" width="4" height="4" fill="#B6E718"/>
<rect x="76" y="40.0005" width="4" height="4" fill="#00E895"/>
<rect x="76" y="43.9995" width="4" height="4" fill="#00E895"/>
<rect x="76" y="48.0002" width="4" height="4" fill="#00E895"/>
<rect x="68" y="48.0002" width="4" height="4" fill="#00E895"/>
<rect x="64" y="51.9993" width="4" height="4" fill="#00E895"/>
<rect x="64" y="56" width="4" height="4" fill="#00E895"/>
<rect x="64" y="60.0007" width="4" height="4.00001" fill="#00E895"/>
<rect x="64" y="63.9998" width="4" height="4" fill="#00E895"/>
<rect x="68" y="51.9993" width="4" height="4" fill="#00E895"/>
<rect x="68" y="60.0007" width="4" height="4.00001" fill="#00E895"/>
<rect x="68" y="56" width="4" height="4" fill="#00E895"/>
<rect x="72" y="51.9993" width="4" height="4" fill="#00E895"/>
<rect x="72" y="56" width="4" height="4" fill="#00E895"/>
<rect x="72" y="60.0007" width="4" height="4.00001" fill="#00A5EE"/>
<rect x="72" y="63.9998" width="4" height="4" fill="#00A5EE"/>
<rect x="76" y="51.9993" width="4" height="4" fill="#00E895"/>
<rect x="76" y="56" width="4" height="4" fill="#00A5EE"/>
<rect x="76" y="60.0007" width="4" height="4.00001" fill="#00A5EE"/>
<rect x="76" y="63.9998" width="4" height="4" fill="#00A5EE"/>
<rect x="68" y="63.9998" width="4" height="4" fill="#00A5EE"/>
<rect x="80" y="15.9995" width="4" height="4" fill="#DEEF18"/>
<rect x="88" y="15.9995" width="4" height="4" fill="#B6E718"/>
<rect x="92" y="15.9995" width="4" height="4" fill="#B6E718"/>
<rect x="84" y="15.9995" width="4" height="4" fill="#DEEF18"/>
<rect x="80" y="20.0002" width="4" height="4" fill="#DEEF18"/>
<rect x="80" y="23.9993" width="4" height="4" fill="#B6E718"/>
<rect x="80" y="28" width="4" height="4" fill="#B6E718"/>
<rect x="80" y="32.0007" width="4" height="4" fill="#B6E718"/>
<rect x="84" y="20.0002" width="4" height="4" fill="#B6E718"/>
<rect x="84" y="28" width="4" height="4" fill="#B6E718"/>
<rect x="84" y="23.9993" width="4" height="4" fill="#B6E718"/>
<rect x="88" y="20.0002" width="4" height="4" fill="#B6E718"/>
<rect x="88" y="23.9993" width="4" height="4" fill="#B6E718"/>
<rect x="88" y="28" width="4" height="4" fill="#00E895"/>
<rect x="88" y="32.0007" width="4" height="4" fill="#00E895"/>
<rect x="92" y="20.0002" width="4" height="4" fill="#B6E718"/>
<rect x="92" y="23.9993" width="4" height="4" fill="#00E895"/>
<rect x="64" y="4.00073" width="4" height="4" fill="#FFAA01"/>
<rect x="72" y="4.00073" width="4" height="4" fill="#FFF900"/>
<rect x="76" y="4.00073" width="4" height="4" fill="#FFF900"/>
<rect x="68" y="4.00073" width="4" height="4" fill="#FFAA01"/>
<rect x="64" y="7.99976" width="4" height="4" fill="#FFAA01"/>
<rect x="64" y="12.0005" width="4" height="4" fill="#FFF900"/>
<rect x="68" y="7.99976" width="4" height="4" fill="#FFF900"/>
<rect x="68" y="12.0005" width="4" height="4" fill="#FFF900"/>
<rect x="72" y="7.99976" width="4" height="4" fill="#FFF900"/>
<rect x="72" y="12.0005" width="4" height="4" fill="#FFF900"/>
<rect x="76" y="7.99976" width="4" height="4" fill="#FFF900"/>
<rect x="76" y="12.0005" width="4" height="4" fill="#FFF900"/>
<rect x="80" y="4.00073" width="4" height="4" fill="#FFF900"/>
<rect x="88" y="4.00073" width="4" height="4" fill="#DEEF18"/>
<rect x="92" y="4.00073" width="4" height="4" fill="#DEEF18"/>
<rect x="84" y="4.00073" width="4" height="4" fill="#FFF900"/>
<rect x="80" y="7.99976" width="4" height="4" fill="#FFF900"/>
<rect x="80" y="12.0005" width="4" height="4" fill="#DEEF18"/>
<rect x="84" y="7.99976" width="4" height="4" fill="#DEEF18"/>
<rect x="84" y="12.0005" width="4" height="4" fill="#DEEF18"/>
<rect x="88" y="7.99976" width="4" height="4" fill="#DEEF18"/>
<rect x="88" y="12.0005" width="4" height="4" fill="#DEEF18"/>
<rect x="92" y="7.99976" width="4" height="4" fill="#DEEF18"/>
<rect x="92" y="12.0005" width="4" height="4" fill="#B6E718"/>
<rect x="92" y="28" width="4" height="4" fill="#00E895"/>
<rect x="92" y="32.0007" width="4" height="4" fill="#00E895"/>
<rect x="84" y="32.0007" width="4" height="4" fill="#00E895"/>
<rect x="80" y="35.9998" width="4" height="4" fill="#00E895"/>
<rect x="80" y="40.0005" width="4" height="4" fill="#00E895"/>
<rect x="80" y="43.9995" width="4" height="4" fill="#00E895"/>
<rect x="80" y="48.0002" width="4" height="4" fill="#00E895"/>
<rect x="84" y="35.9998" width="4" height="4" fill="#00E895"/>
<rect x="84" y="43.9995" width="4" height="4" fill="#00E895"/>
<rect x="84" y="40.0005" width="4" height="4" fill="#00E895"/>
<rect x="88" y="35.9998" width="4" height="4" fill="#00E895"/>
<rect x="88" y="40.0005" width="4" height="4" fill="#00E895"/>
<rect x="88" y="43.9995" width="4" height="4" fill="#00A5EE"/>
<rect x="88" y="48.0002" width="4" height="4" fill="#00A5EE"/>
<rect x="92" y="35.9998" width="4" height="4" fill="#00E895"/>
<rect x="92" y="40.0005" width="4" height="4" fill="#00A5EE"/>
<rect x="92" y="43.9995" width="4" height="4" fill="#00A5EE"/>
<rect x="92" y="48.0002" width="4" height="4" fill="#00A5EE"/>
<rect x="84" y="48.0002" width="4" height="4" fill="#00A5EE"/>
<rect x="80" y="51.9993" width="4" height="4" fill="#00A5EE"/>
<rect x="80" y="56" width="4" height="4" fill="#00A5EE"/>
<rect x="80" y="60.0007" width="4" height="4.00001" fill="#00A5EE"/>
<rect x="80" y="63.9998" width="4" height="4" fill="#00A5EE"/>
<rect x="84" y="51.9993" width="4" height="4" fill="#00A5EE"/>
<rect x="84" y="60.0007" width="4" height="4.00001" fill="#00A5EE"/>
<rect x="84" y="56" width="4" height="4" fill="#00A5EE"/>
<rect x="88" y="51.9993" width="4" height="4" fill="#00A5EE"/>
<rect x="88" y="56" width="4" height="4" fill="#00A5EE"/>
<rect x="88" y="60.0007" width="4" height="4.00001" fill="#A64AA7"/>
<rect x="88" y="63.9998" width="4" height="4" fill="#A64AA7"/>
<rect x="92" y="51.9993" width="4" height="4" fill="#00A5EE"/>
<rect x="92" y="56" width="4" height="4" fill="#A64AA7"/>
<rect x="92" y="60.0007" width="4" height="4.00001" fill="#A64AA7"/>
<rect x="92" y="63.9998" width="4" height="4" fill="#A64AA7"/>
<rect x="96" y="15.9995" width="4" height="4" fill="#B6E718"/>
<rect x="96" y="20.0002" width="4" height="4" fill="#00E895"/>
<rect x="96" y="23.9993" width="4" height="4" fill="#00E895"/>
<rect x="96" y="4.00073" width="4" height="4" fill="#DEEF18"/>
<rect x="96" y="7.99976" width="4" height="4" fill="#B6E718"/>
<rect x="96" y="12.0005" width="4" height="4" fill="#B6E718"/>
<rect x="96" y="28" width="4" height="4" fill="#00E895"/>
<rect x="96" y="32.0007" width="4" height="4" fill="#00E895"/>
<rect x="96" y="35.9998" width="4" height="4" fill="#00A5EE"/>
<rect x="96" y="40.0005" width="4" height="4" fill="#00A5EE"/>
<rect x="96" y="43.9995" width="4" height="4" fill="#00A5EE"/>
<rect x="96" y="48.0002" width="4" height="4" fill="#00A5EE"/>
<rect x="100" y="15.9995" width="4" height="4" fill="#00E895"/>
<rect x="104" y="15.9995" width="4" height="4" fill="#00E895"/>
<rect x="100" y="20.0002" width="4" height="4" fill="#00E895"/>
<rect x="100" y="23.9993" width="4" height="4" fill="#00E895"/>
<rect x="100" y="28" width="4" height="4" fill="#00E895"/>
<rect x="100" y="32.0007" width="4" height="4" fill="#00A5EE"/>
<rect x="104" y="20.0002" width="4" height="4" fill="#00E895"/>
<rect x="104" y="23.9993" width="4" height="4" fill="#00E895"/>
<rect x="104" y="28" width="4" height="4" fill="#00A5EE"/>
<rect x="104" y="32.0007" width="4" height="4" fill="#00A5EE"/>
<rect x="100" y="35.9998" width="4" height="4" fill="#00A5EE"/>
<rect x="100" y="40.0005" width="4" height="4" fill="#00A5EE"/>
<rect x="100" y="43.9995" width="4" height="4" fill="#00A5EE"/>
<rect x="100" y="48.0002" width="4" height="4" fill="#A64AA7"/>
<rect x="104" y="35.9998" width="4" height="4" fill="#00A5EE"/>
<rect x="104" y="40.0005" width="4" height="4" fill="#00A5EE"/>
<rect x="104" y="43.9995" width="4" height="4" fill="#A64AA7"/>
<rect x="104" y="48.0002" width="4" height="4" fill="#A64AA7"/>
<rect x="108" y="15.9995" width="4" height="4" fill="#00E895"/>
<rect x="108" y="20.0002" width="4" height="4" fill="#00E895"/>
<rect x="108" y="23.9993" width="4" height="4" fill="#00A5EE"/>
<rect x="108" y="28" width="4" height="4" fill="#00A5EE"/>
<rect x="108" y="32.0007" width="4" height="4" fill="#00A5EE"/>
<rect x="108" y="35.9998" width="4" height="4" fill="#00A5EE"/>
<rect x="108" y="40.0005" width="4" height="4" fill="#A64AA7"/>
<rect x="108" y="43.9995" width="4" height="4" fill="#A64AA7"/>
<rect x="108" y="48.0002" width="4" height="4" fill="#A64AA7"/>
<rect x="96" y="51.9993" width="4" height="4" fill="#A64AA7"/>
<rect x="96" y="56" width="4" height="4" fill="#A64AA7"/>
<rect x="96" y="60.0007" width="4" height="4.00001" fill="#A64AA7"/>
<rect x="96" y="63.9998" width="4" height="4" fill="#A64AA7"/>
<rect x="84" y="63.9998" width="4" height="4" fill="#A64AA7"/>
<rect x="32" y="68.0005" width="4" height="4" fill="#DEEF18"/>
<rect x="32" y="71.9995" width="4" height="4" fill="#B6E718"/>
<rect x="28" y="68.0005" width="4" height="4" fill="#DEEF18"/>
<rect x="28" y="71.9995" width="4" height="4" fill="#DEEF18"/>
<rect x="36" y="68.0005" width="4" height="4" fill="#B6E718"/>
<rect x="40" y="68.0005" width="4" height="4" fill="#B6E718"/>
<rect x="40" y="71.9995" width="4" height="4" fill="#B6E718"/>
<rect x="44" y="68.0005" width="4" height="4" fill="#B6E718"/>
<rect x="44" y="71.9995" width="4" height="4" fill="#00E895"/>
<rect x="36" y="71.9995" width="4" height="4" fill="#B6E718"/>
<rect x="24" y="68.0005" width="4" height="4" fill="#DEEF18"/>
<rect x="24" y="71.9995" width="4" height="4" fill="#DEEF18"/>
<rect x="48" y="68.0005" width="4" height="4" fill="#00E895"/>
<rect x="48" y="71.9995" width="4" height="4" fill="#00E895"/>
<rect x="52" y="68.0005" width="4" height="4" fill="#00E895"/>
<rect x="56" y="68.0005" width="4" height="4" fill="#00E895"/>
<rect x="56" y="71.9995" width="4" height="4" fill="#00E895"/>
<rect x="60" y="68.0005" width="4" height="4" fill="#00E895"/>
<rect x="60" y="71.9995" width="4" height="4" fill="#00A5EE"/>
<rect x="52" y="71.9995" width="4" height="4" fill="#00E895"/>
<rect x="64" y="68.0005" width="4" height="4" fill="#00A5EE"/>
<rect x="64" y="71.9995" width="4" height="4" fill="#00A5EE"/>
<rect x="68" y="68.0005" width="4" height="4" fill="#00A5EE"/>
<rect x="72" y="68.0005" width="4" height="4" fill="#00A5EE"/>
<rect x="72" y="71.9995" width="4" height="4" fill="#00A5EE"/>
<rect x="76" y="68.0005" width="4" height="4" fill="#00A5EE"/>
<rect x="76" y="71.9995" width="4" height="4" fill="#A64AA7"/>
<rect x="68" y="71.9995" width="4" height="4" fill="#00A5EE"/>
<rect x="36" y="76.0002" width="4" height="4.00001" fill="#B6E718"/>
<rect x="40" y="76.0002" width="4" height="4.00001" fill="#00E895"/>
<rect x="40" y="79.9993" width="4" height="4" fill="#00E895"/>
<rect x="44" y="76.0002" width="4" height="4.00001" fill="#00E895"/>
<rect x="44" y="79.9993" width="4" height="4" fill="#00E895"/>
<rect x="36" y="79.9993" width="4" height="4" fill="#00E895"/>
<rect x="48" y="76.0002" width="4" height="4.00001" fill="#00E895"/>
<rect x="48" y="79.9993" width="4" height="4" fill="#00E895"/>
<rect x="52" y="76.0002" width="4" height="4.00001" fill="#00E895"/>
<rect x="56" y="76.0002" width="4" height="4.00001" fill="#00A5EE"/>
<rect x="56" y="79.9993" width="4" height="4" fill="#00A5EE"/>
<rect x="60" y="76.0002" width="4" height="4.00001" fill="#00A5EE"/>
<rect x="60" y="79.9993" width="4" height="4" fill="#00A5EE"/>
<rect x="52" y="79.9993" width="4" height="4" fill="#00A5EE"/>
<rect x="64" y="76.0002" width="4" height="4.00001" fill="#00A5EE"/>
<rect x="64" y="79.9993" width="4" height="4" fill="#00A5EE"/>
<rect x="68" y="76.0002" width="4" height="4.00001" fill="#00A5EE"/>
<rect x="72" y="76.0002" width="4" height="4.00001" fill="#A64AA7"/>
<rect x="72" y="79.9993" width="4" height="4" fill="#A64AA7"/>
<rect x="68" y="79.9993" width="4" height="4" fill="#A64AA7"/>
<rect x="36" y="84" width="4" height="4" fill="#00E895"/>
<rect x="40" y="84" width="4" height="4" fill="#00E895"/>
<rect x="40" y="88.0007" width="4" height="4.00001" fill="#00E895"/>
<rect x="44" y="84" width="4" height="4" fill="#00E895"/>
<rect x="44" y="88.0007" width="4" height="4.00001" fill="#00A5EE"/>
<rect x="36" y="88.0007" width="4" height="4.00001" fill="#00E895"/>
<rect x="48" y="84" width="4" height="4" fill="#00A5EE"/>
<rect x="48" y="88.0007" width="4" height="4.00001" fill="#00A5EE"/>
<rect x="52" y="84" width="4" height="4" fill="#00A5EE"/>
<rect x="56" y="84" width="4" height="4" fill="#00A5EE"/>
<rect x="56" y="88.0007" width="4" height="4.00001" fill="#00A5EE"/>
<rect x="60" y="84" width="4" height="4" fill="#00A5EE"/>
<rect x="60" y="88.0007" width="4" height="4.00001" fill="#A64AA7"/>
<rect x="52" y="88.0007" width="4" height="4.00001" fill="#00A5EE"/>
<rect x="48" y="91.9998" width="4" height="4" fill="#00A5EE"/>
<rect x="56" y="91.9998" width="4" height="4" fill="#A64AA7"/>
<rect x="60" y="91.9998" width="4" height="4" fill="#A64AA7"/>
<rect x="52" y="91.9998" width="4" height="4" fill="#00A5EE"/>
<rect x="48" y="96.0005" width="4" height="4" fill="#00A5EE"/>
<rect x="48" y="99.9995" width="4" height="4" fill="#A64AA7"/>
<rect x="52" y="96.0005" width="4" height="4" fill="#A64AA7"/>
<rect x="56" y="96.0005" width="4" height="4" fill="#A64AA7"/>
<rect x="56" y="99.9995" width="4" height="4" fill="#A64AA7"/>
<rect x="60" y="96.0005" width="4" height="4" fill="#A64AA7"/>
<rect x="60" y="99.9995" width="4" height="4" fill="#A64AA7"/>
<rect x="52" y="99.9995" width="4" height="4" fill="#A64AA7"/>
<rect x="64" y="84" width="4" height="4" fill="#A64AA7"/>
<rect x="64" y="88.0007" width="4" height="4.00001" fill="#A64AA7"/>
<rect x="68" y="84" width="4" height="4" fill="#A64AA7"/>
<rect x="72" y="84" width="4" height="4" fill="#A64AA7"/>
<rect x="72" y="88.0007" width="4" height="4.00001" fill="#A64AA7"/>
<rect x="68" y="88.0007" width="4" height="4.00001" fill="#A64AA7"/>
<rect x="80" y="68.0005" width="4" height="4" fill="#A64AA7"/>
<rect x="80" y="71.9995" width="4" height="4" fill="#A64AA7"/>
<rect x="84" y="68.0005" width="4" height="4" fill="#A64AA7"/>
<rect x="84" y="71.9995" width="4" height="4" fill="#A64AA7"/>
<rect x="8" y="15.9995" width="4" height="4" fill="#F11822"/>
<rect x="4" y="15.9995" width="4" height="4" fill="#F11822"/>
<rect y="15.9995" width="4" height="4" fill="#F11822"/>
<rect x="12" y="20.0002" width="4" height="4" fill="#FE4422"/>
<rect x="8" y="20.0002" width="4" height="4" fill="#FE4422"/>
<rect x="4" y="20.0002" width="4" height="4" fill="#F11822"/>
<rect y="20.0002" width="4" height="4" fill="#F11822"/>
<rect x="12" y="23.9993" width="4" height="4" fill="#FE4422"/>
<rect x="8" y="23.9993" width="4" height="4" fill="#FE4422"/>
<rect x="4" y="23.9993" width="4" height="4" fill="#FE4422"/>
<rect y="23.9993" width="4" height="4" fill="#F11822"/>
<rect x="12" y="28" width="4" height="4" fill="#FE4422"/>
<rect x="8" y="28" width="4" height="4" fill="#FE4422"/>
<rect x="4" y="28" width="4" height="4" fill="#FE4422"/>
<rect y="28" width="4" height="4" fill="#FE4422"/>
<rect x="12" y="32.0007" width="4" height="4" fill="#FF8825"/>
<rect x="8" y="32.0007" width="4" height="4" fill="#FE4422"/>
<rect x="4" y="32.0007" width="4" height="4" fill="#FE4422"/>
<rect y="32.0007" width="4" height="4" fill="#FE4422"/>
<rect x="12" y="35.9998" width="4" height="4" fill="#FF8825"/>
<rect x="8" y="35.9998" width="4" height="4" fill="#FF8825"/>
<rect x="4" y="35.9998" width="4" height="4" fill="#FE4422"/>
<rect y="35.9998" width="4" height="4" fill="#FE4422"/>
<rect x="12" y="40.0005" width="4" height="4" fill="#FF8825"/>
<rect x="8" y="40.0005" width="4" height="4" fill="#FF8825"/>
<rect x="4" y="40.0005" width="4" height="4" fill="#FF8825"/>
<rect y="40.0005" width="4" height="4" fill="#FE4422"/>
<rect x="12" y="43.9995" width="4" height="4" fill="#FF8825"/>
<rect x="8" y="43.9995" width="4" height="4" fill="#FF8825"/>
<rect x="4" y="43.9995" width="4" height="4" fill="#FF8825"/>
<rect y="43.9995" width="4" height="4" fill="#FF8825"/>
<rect x="12" y="48.0002" width="4" height="4" fill="#FFAA01"/>
<rect x="8" y="48.0002" width="4" height="4" fill="#FF8825"/>
<rect x="4" y="48.0002" width="4" height="4" fill="#FF8825"/>
<rect y="48.0002" width="4" height="4" fill="#FF8825"/>
</svg>
